<?xml version="1.0" encoding="UTF-8"?>
<svg id="Layer_1" data-name="Layer 1" xmlns="http://www.w3.org/2000/svg" version="1.1" viewBox="0 0 1080 1080">
  <defs>
    <style>
      .cls-1 {
        font-family: MyriadPro-Regular, 'Myriad Pro';
        font-size: 40px;
      }

      .cls-1, .cls-2 {
        fill: #00529b;
        stroke: #00529b;
      }

      .cls-1, .cls-2, .cls-3, .cls-4 {
        stroke-miterlimit: 10;
      }

      .cls-2 {
        stroke-width: 16px;
      }

      .cls-3 {
        fill: #999b9e;
        stroke: #999b9e;
      }

      .cls-3, .cls-4 {
        stroke-width: 29px;
      }

      .cls-4 {
        fill: #009d57;
        stroke: #009d57;
      }
    </style>
  </defs>
  <text/>
  <text/>
  <text/>
  <g>
    <g>
      <path class="cls-2" d="M255.12,584.76v-123.1h86.2v15.2h-69.4v46.8h63.8v15.2h-63.8v47.6h70.4v15.2h-70.3c-9.33,0-16.9-7.57-16.9-16.9Z"/>
      <path class="cls-4" d="M396.5,596.17l45.2-70.6-44.6-69.4h19.8l35.6,57.8h2.6l74.8-119.46h19.6l-83.4,131.06,45.2,70.6h-19.6l-36.6-59h-2.6l-36.4,59h-19.6Z"/>
      <path class="cls-2" d="M606.52,604.46c-16.67,0-29.97-4.83-39.9-14.5-9.93-9.67-14.9-23.77-14.9-42.3v-32c0-18.53,4.97-32.63,14.9-42.3,9.93-9.67,23.23-14.5,39.9-14.5s30.17,4.83,40.1,14.5c9.93,9.67,14.9,23.77,14.9,42.3v32c0,18.53-4.97,32.63-14.9,42.3-9.93,9.67-23.3,14.5-40.1,14.5ZM606.52,589.46c12.13,0,21.53-3.63,28.2-10.9,6.67-7.27,10-17.37,10-30.3v-33.2c0-12.93-3.33-23.03-10-30.3-6.67-7.27-16.07-10.9-28.2-10.9s-21.33,3.63-28,10.9c-6.67,7.27-10,17.37-10,30.3v33.2c0,12.93,3.33,23.03,10,30.3,6.67,7.27,16,10.9,28,10.9Z"/>
      <path class="cls-2" d="M689.52,601.66v-140h53.6c8.4,0,15.9,1.63,22.5,4.9,6.6,3.27,11.83,7.9,15.7,13.9,3.87,6,5.8,13.27,5.8,21.8v2.6c0,8.4-1.97,15.63-5.9,21.7-3.93,6.07-9.23,10.7-15.9,13.9-6.67,3.2-14.07,4.8-22.2,4.8h-36.8v56.4h-16.8ZM706.32,530.06h35c8.93,0,16-2.23,21.2-6.7,5.2-4.47,7.8-10.77,7.8-18.9v-2c0-8.13-2.57-14.43-7.7-18.9-5.13-4.47-12.23-6.7-21.3-6.7h-35v53.2Z"/>
    </g>
    <text class="cls-1" transform="translate(241.32 677.67)"><tspan x="0" y="0">LA VOIE DE L’EXCELLENCE</tspan></text>
    <text/>
    <text/>
    <text/>
    <polygon class="cls-3" points="421.5 523.5 421.5 523.5 421.5 523.5 421.5 523.5 421.5 523.5 421.5 523.5"/>
    <polyline class="cls-3" points="421.5 523.5 421.5 523.5 421.5 523.5 421.5 523.5 421.5 523.5"/>
    <polyline class="cls-3" points="367.5 608.5 367.5 608.5 367.5 608.5 367.5 608.5 367.5 608.5 367.5 608.5 367.5 608.5"/>
    <text/>
    <text/>
    <text/>
    <polygon class="cls-3" points="484.12 554.16 484.12 554.16 484.12 554.16 484.12 554.16 484.12 554.16 484.12 554.16"/>
    <polyline class="cls-3" points="484.12 554.16 484.12 554.16 484.12 554.16 484.12 554.16 484.12 554.16"/>
    <polygon class="cls-3" points="306.17 368.47 306.17 368.47 306.17 368.47 306.17 368.47 306.17 368.47 306.17 368.47"/>
    <polyline class="cls-3" points="306.17 368.47 306.17 368.47 306.17 368.47 306.17 368.47 306.17 368.47"/>
    <polyline class="cls-3" points="252.17 453.47 252.17 453.47 252.17 453.47 252.17 453.47 252.17 453.47 252.17 453.47 252.17 453.47"/>
    <text/>
    <text/>
    <text/>
    <polygon class="cls-3" points="368.79 399.13 368.79 399.13 368.79 399.13 368.79 399.13 368.79 399.13 368.79 399.13"/>
    <polyline class="cls-3" points="368.79 399.13 368.79 399.13 368.79 399.13 368.79 399.13 368.79 399.13"/>
    <path class="cls-3" d="M421.5,523.5"/>
    <path class="cls-3" d="M421.5,523.5"/>
    <path class="cls-3" d="M421.5,523.5"/>
    <path class="cls-3" d="M421.5,523.5"/>
    <path class="cls-3" d="M421.5,523.5"/>
  </g>
</svg>